<svg width="125" height="131" viewBox="0 0 125 131" fill="none" xmlns="http://www.w3.org/2000/svg">
<g clip-path="url(#clip0_2_227)">
<path d="M38.4645 4.95639C36.8505 6.40418 35.3754 7.99977 34.0586 9.72232C32.3194 12.2631 30.8848 14.9996 29.7845 17.8754C23.4122 35.8092 23.1549 54.1431 31.3948 71.2123C39.8407 88.5938 54.5019 99.1631 74.2283 101.396C84.057 102.458 93.9986 101.582 103.49 98.8171C105.216 98.3232 106.966 97.8761 109.833 97.1126C108.116 100.795 106.817 103.618 105.51 106.431L106.545 107.223C107.362 106.859 108.126 106.388 108.82 105.823C111.949 102.568 114.998 99.2982 118.053 95.9384C120.004 93.8017 122.085 91.4832 120.995 88.3414C119.765 85.0001 116.611 84.0601 113.494 83.9378C109.199 83.8111 104.901 83.9474 100.623 84.3458C99.7494 84.4154 98.9803 85.7871 98.1443 86.5205C98.8777 87.3564 99.5515 88.6867 100.445 88.872C103.223 89.4613 106.085 89.6032 108.964 89.9003C108.787 90.26 108.749 90.5655 108.609 90.6198C80.9202 101.697 54.858 97.3205 37.8187 73.5346C36.9802 72.3707 36.2665 71.1218 35.6894 69.8085C27.4918 50.9849 27.1532 32.0686 35.3014 13.1549C36.577 10.6938 38.0334 8.33079 39.6587 6.0852L38.4645 4.95639Z" fill="white"/>
</g>
<defs>
<clipPath id="clip0_2_227">
<rect width="122.171" height="58.6825" fill="white" transform="matrix(0.65944 0.751757 0.751757 -0.65944 0 38.6978)"/>
</clipPath>
</defs>
</svg>
